<svg width="1024" height="1024" xmlns="http://www.w3.org/2000/svg"><g fill="none" fill-rule="evenodd"><path fill="#A1262E" d="M0 0h1024v1024H0z"/><path d="M306.587 517.887h9.23v90.583c0 21.576-1.143 25.834-8.47 25.834-7.331 0-8.478-4.258-8.478-25.834V421.146c0-21.576 1.147-25.81 8.478-25.81 7.327 0 8.47 4.234 8.47 25.81v46.261h19.287v-60.533c0-18.48-10.79-30.046-27.757-30.046-16.585 0-27.737 11.566-27.737 30.046v215.864c0 18.508 10.79 30.07 27.737 30.07 16.577 0 27.757-11.562 27.757-30.07V499.383h-28.517v18.504zm-92.82-195.706l-10.997-2.245-10.213-2.428-.235.343 27.53 17.636-4.736 7.375-47.526-30.46 4.625-7.168 16.816 3.526 12.68 2.886.235-.343-8.151-10.626-9.942-13.604 4.529-7.077 47.51 30.436-4.72 7.375-27.347-17.544-.183.278 6.547 8.426 6.372 8.796-2.794 4.418zm48.092-42.67l-40.86-38.934 17.313-18.137 5.919 5.632-11.276 11.817 11.18 10.63 9.8-10.264 6.045 5.751-9.803 10.285 11.801 11.247 11.24-11.797 5.934 5.632-17.293 18.137zm63.096-53.983l-8.585-8.31-8.478 6.002c.828 1.807 1.676 3.614 2.52 5.425.867 1.835 1.74 3.618 2.567 5.385l-7.236 5.174c-3.94-8.82-7.857-17.568-11.725-26.293-3.893-8.724-7.813-17.472-11.734-26.292l7.929-5.636 42.026 39.375-7.284 5.17zm-31.351-30.937a565.32 565.32 0 0 1 5.357 10.464 697.623 697.623 0 0 1 5.266 10.738l6.28-4.462-16.56-16.975-.343.235zm61.974-40.493l19.857 43.952-7.968 3.594-19.905-43.948-8.247 3.753-3.387-7.467 24.55-11.084 3.367 7.438-8.267 3.762zm81.238-21.784c.23 1.214.78 2.587 1.671 4.08a49.264 49.264 0 0 0 3.368 4.74l11.657 14.13c.16-1.007.2-2.106.16-3.3a41.839 41.839 0 0 0-.343-3.733l7.51-1.345c.367 2.4.482 4.967.347 7.713-.143 2.75-.581 5.246-1.258 7.514l7.964 9.477-9.528 1.676-2.695-3.208c-1.357 1.998-2.893 3.415-4.585 4.239a21.709 21.709 0 0 1-5.476 1.743c-1.74.318-3.407.274-5.011-.163a10.943 10.943 0 0 1-4.307-2.293c-1.281-1.075-2.408-2.472-3.3-4.167-.919-1.716-1.56-3.666-1.973-5.839-.546-3.184-.406-6.137.51-8.86.87-2.706 2.312-5.432 4.306-8.135l-1.903-2.288c-1.078-1.354-2.085-2.954-3.068-4.789a19.337 19.337 0 0 1-2.042-5.838 15.93 15.93 0 0 1-.088-5.059c.275-1.608.776-3.073 1.576-4.354a10.434 10.434 0 0 1 3.14-3.276c1.286-.891 2.795-1.488 4.49-1.783 2.933-.53 5.548-.418 7.81.366 2.268.776 4.278 2.404 5.977 4.896l-6.456 4.86c-.692-1.123-1.512-1.903-2.475-2.317a5.369 5.369 0 0 0-2.93-.342c-1.508.274-2.431.983-2.794 2.153a7.253 7.253 0 0 0-.254 3.502zm4.167 20.498c-.872 1.604-1.485 3.12-1.879 4.557-.39 1.421-.437 2.91-.155 4.466.362 1.95 1.142 3.598 2.332 4.856 1.194 1.261 2.607 1.767 4.327 1.448a6.85 6.85 0 0 0 2.953-1.31c.947-.688 1.676-1.484 2.22-2.427l-9.798-11.59zm101.76-24c.178-2.567-.184-4.466-1.123-5.68-.94-1.214-2.587-1.902-4.971-2.085l-2.723-.203-1.126 14.543 2.842.203c2.264.183 3.96-.322 5.106-1.465 1.15-1.17 1.811-2.933 1.994-5.313zm-1.286 23.085c.234-2.635-.12-4.625-.988-5.998-.887-1.378-2.539-2.154-4.939-2.34l-3.323-.248-1.33 17.47 3.483.254c1.393.111 2.54-.072 3.411-.506.872-.457 1.58-1.074 2.082-1.922.557-.824.923-1.807 1.146-2.997.21-1.17.374-2.408.458-3.713zm2.75-11.499c2.428 1.011 4.008 2.683 4.768 5.019.728 2.336 1.01 4.947.776 7.857-.462 5.862-2.018 10.077-4.764 12.64-2.703 2.568-6.643 3.642-11.817 3.252l-11.642-.891L525.791 112l12.275.94c4.999.39 8.477 1.97 10.539 4.74 2.018 2.794 2.842 6.666 2.471 11.614-.179 2.583-.827 4.831-1.85 6.71-1.035 1.855-2.683 3.204-4.971 4.008l-.048.386zm85.29-11.22l-11.471 40.307c-1.361 4.744-3.411 8.015-6.19 9.826-2.793 1.831-6.483 2.11-11.032.8-4.565-1.305-7.558-3.41-9.003-6.296-1.445-2.906-1.54-6.571-.319-10.925l11.722-41.202 8.434 2.404-11.754 41.34c-.386 1.418-.437 2.775-.02 4.08.359 1.33 1.417 2.221 3.157 2.703 1.695.501 3.088.247 4.17-.689 1.052-.987 1.784-2.292 2.29-3.964l11.593-40.788 8.422 2.404zm59.776 23.248c4.12 2.081 6.735 4.852 7.881 8.334 1.126 3.459.366 7.765-2.273 12.92-1.627 3.184-3.43 5.631-5.448 7.375-2.018 1.715-4.462 2.635-7.371 2.722l-4.052 26.249-7.952-4.056 4.143-24.115-3.666-1.879-10.647 20.772-7.805-3.98 25.74-50.253 11.45 5.91zm-7.395 5.405l-7.534 14.702 3.16 1.628c2.038 1.027 3.825 1.21 5.405.526 1.557-.689 3.017-2.337 4.323-4.924 1.19-2.312 1.628-4.35 1.36-6.093-.282-1.764-1.52-3.208-3.673-4.307l-3.04-1.532zm39.045 80.458c-3.661-2.886-5.628-5.93-5.954-9.139-.27-3.232.983-6.619 3.805-10.189l17.361-22.13c1.326-1.643 2.746-3.068 4.259-4.234a12.982 12.982 0 0 1 4.927-2.36c1.744-.434 3.547-.434 5.401.024 1.855.414 3.761 1.397 5.732 2.933 3.59 2.838 5.544 5.863 5.79 9.043.231 3.184-.82 6.3-3.211 9.301l-.41.502-7.79-3.96c1.29-1.628 2.019-3.184 2.206-4.673.187-1.508-.39-2.77-1.72-3.825-.804-.62-1.58-.963-2.364-1.01a4.253 4.253 0 0 0-2.173.39c-.685.322-1.35.76-1.922 1.309a11.546 11.546 0 0 0-1.537 1.6l-17.727 22.559c-.366.458-.64.963-.868 1.488-.458.868-.732 1.811-.732 2.818-.044 1.011.55 1.994 1.783 2.958 1.194.959 2.432 1.416 3.662 1.349 1.237-.068 2.296-.665 3.168-1.763l6.846-8.729-4.008-3.156 4.724-6.002 10.897 8.565-11.132 14.157c-2.746 3.479-5.819 5.334-9.186 5.585-3.367.23-6.667-.916-9.827-3.411zm40.47 34.535l16.398 18.941 6.185-5.38-10.647-12.3 12.323-10.674 9.277 10.722 6.297-5.452-9.278-10.719 11.642-10.121 10.694 12.318 6.178-5.361-16.394-18.937-42.675 36.963zm93.56 29.683c2.476 3.873 3.347 7.583 2.567 11.157-.76 3.57-3.574 6.917-8.43 10.053-3.024 1.899-5.819 3.113-8.425 3.594-2.615.506-5.202.048-7.738-1.329L816.2 346.62l-4.836-7.51 15.741-18.759-2.244-3.482-19.654 12.617-4.717-7.372 47.503-30.46 6.961 10.854zm-9.138.94l-13.927 8.911 1.927 3.021c1.214 1.899 2.678 2.953 4.394 3.16 1.695.183 3.789-.505 6.229-2.081 2.18-1.401 3.598-2.934 4.238-4.581.65-1.676.299-3.53-1.007-5.569l-1.854-2.861zM158.113 524.159c1.553.784 5.724 1.055 7.785-2.332 1.831-3.367-.505-6.758-2.061-7.81-2.09-1.285-1.557-.505-6.778-1.535l-7.284-1.835-3.367-1.831 3.367-1.807 7.284-1.56c5.472-1.055 4.688-.522 7.028-1.831 1.306-1.027 3.642-4.418 1.811-7.809-2.061-3.367-6.232-3.093-7.785-2.062-2.34 1.031-1.31 1.031-4.676 4.924l-5.226 5.472-3.387 2.09v-3.897l2.356-7.283c1.819-5.222 1.819-4.167 1.819-6.758 0-1.827-1.82-5.473-5.712-5.473-3.912 0-5.723 3.646-5.723 5.473 0 2.59 0 1.536 1.811 6.758l2.336 7.283v3.897l-3.367-2.09-4.927-5.472c-3.666-4.398-2.878-3.893-4.944-5.174-1.556-.78-5.73-1.055-7.812 2.312-1.807 3.391.529 6.782 2.081 7.809 2.066 1.31 1.286.776 6.762 1.56l7.284 1.831 3.116 1.807-3.116 1.83-7.284 1.561c-5.476 1.03-4.696.525-7.033 1.81-1.281 1.052-3.617 4.443-1.81 7.81 2.081 3.387 6.256 3.116 7.812 2.081 2.337-1.054 1.278-.52 4.673-4.943l5.198-5.453 3.367-1.83v3.661l-2.336 7.26c-1.811 5.202-1.811 4.167-1.811 6.758 0 1.831 1.811 5.473 5.723 5.473 3.893 0 5.712-3.642 5.712-5.473 0-2.59-.255-1.807-1.82-6.758l-2.355-7.26v-3.661l3.387 1.83 4.951 5.453c3.642 4.422 2.862 3.889 4.951 5.194zm742.508 0c1.556.784 5.723 1.055 7.813-2.332 1.81-3.367-.534-6.758-2.09-7.81-2.074-1.285-1.552-.505-6.75-1.535l-7.284-1.835-3.387-1.831 3.387-1.807 7.284-1.56c5.453-1.055 4.676-.522 7.033-1.831 1.273-1.027 3.618-4.418 1.807-7.809-2.09-3.367-6.257-3.093-7.813-2.062-2.333 1.031-1.282 1.031-4.669 4.924l-5.202 5.472-3.367 2.09v-3.897l2.34-7.283c1.811-5.222 1.811-4.167 1.811-6.758 0-1.827-1.81-5.473-5.723-5.473-3.92 0-5.716 3.646-5.716 5.473 0 2.59 0 1.536 1.795 6.758l2.357 7.283v3.897l-3.391-2.09-4.92-5.472c-3.67-4.398-2.862-3.893-4.955-5.174-1.548-.78-5.723-1.055-7.785 2.312-1.827 3.391.505 6.782 2.062 7.809 2.093 1.31 1.305.776 6.766 1.56l7.275 1.831 3.137 1.807-3.137 1.83-7.275 1.561c-5.461 1.03-4.673.525-7.017 1.81-1.306 1.052-3.638 4.443-1.811 7.81 2.062 3.387 6.237 3.116 7.785 2.081 2.344-1.054 1.286-.52 4.677-4.943l5.198-5.453 3.39-1.83v3.661l-2.356 7.26c-1.795 5.202-1.795 4.167-1.795 6.758 0 1.831 1.795 5.473 5.716 5.473 3.912 0 5.723-3.642 5.723-5.473 0-2.59-.255-1.807-1.81-6.758l-2.341-7.26v-3.661l3.367 1.83 4.927 5.453c3.662 4.422 2.89 3.889 4.944 5.194zM224.048 691.721l-36.76 21.139c-4.036 2.316-7.722 3.068-11.061 2.316-3.32-.756-6.114-3.073-8.362-6.961-1.195-2.114-1.88-4.31-1.967-6.6-.1-2.292.454-4.556 1.644-6.801l7.606 3.112a7.431 7.431 0 0 0-.804 3.232c-.048 1.19.167 2.15.581 2.886.912 1.556 2.054 2.36 3.499 2.428 1.444.091 2.861-.275 4.21-1.06l37.04-21.293 4.374 7.602zm28.831 59.821c1.194-1.027 2.014-2.197 2.524-3.526.497-1.325.14-2.703-1.107-4.123-.656-.777-1.389-1.282-2.177-1.465a5.044 5.044 0 0 0-2.26-.024 7.791 7.791 0 0 0-2.178.94c-.732.461-1.349.919-1.902 1.372l-21.433 18.576c-1.098.963-1.878 2.085-2.273 3.41-.382 1.306-.023 2.635 1.175 3.989 1.142 1.349 2.423 1.902 3.868 1.695 1.393-.23 2.774-.92 4.076-2.062l21.687-18.782zm-15.574 25.103c-3.71 3.208-7.255 4.808-10.603 4.788-3.367-.024-6.575-1.831-9.683-5.405-3.12-3.598-4.446-6.985-4.04-10.193.394-3.208 2.316-6.3 5.755-9.254l21.457-18.595c1.652-1.445 3.367-2.587 5.09-3.419 1.74-.796 3.431-1.234 5.13-1.301 1.708-.044 3.432.37 5.131 1.194 1.688.843 3.34 2.2 4.916 4.028 1.7 1.946 2.87 3.828 3.51 5.592.645 1.763.804 3.478.505 5.102-.278 1.652-.987 3.256-2.061 4.788-1.103 1.556-2.524 3.093-4.259 4.605l-20.848 18.07zm61.843 49.31c-1.469 2.06-2.981 3.776-4.537 5.177-1.537 1.397-3.16 2.36-4.9 2.886-1.695.55-3.526.617-5.456.183-1.923-.414-3.977-1.377-6.134-2.91-2.018-1.444-3.506-2.929-4.537-4.509-1.05-1.608-1.644-3.208-1.879-4.88-.223-1.675-.04-3.319.506-4.995.545-1.647 1.373-3.227 2.475-4.788l8.108 3.69c-1.146 1.783-1.811 3.41-2.018 4.903-.18 1.485.553 2.79 2.201 3.985.963.684 1.879 1.054 2.702 1.074a4.297 4.297 0 0 0 2.337-.597c.732-.41 1.417-.983 2.034-1.74a31.042 31.042 0 0 0 1.878-2.45c.808-1.095 1.401-2.063 1.763-2.906.414-.848.645-1.672.645-2.456 0-.796-.23-1.644-.62-2.512-.387-.9-.98-1.974-1.712-3.231-1.56-2.496-2.663-4.72-3.304-6.647-.664-1.923-.963-3.686-.891-5.266a11.437 11.437 0 0 1 1.078-4.418 26.44 26.44 0 0 1 2.496-4.239c1.305-1.854 2.766-3.41 4.286-4.624 1.553-1.238 3.2-2.066 4.896-2.544 1.743-.481 3.526-.501 5.425-.091 1.859.414 3.785 1.305 5.803 2.722 2.15 1.54 3.705 3.168 4.617 4.836.92 1.695 1.425 3.367 1.516 5.015a12.179 12.179 0 0 1-.684 4.788 16.892 16.892 0 0 1-2.11 4.076l-8.29-3.435c1.19-1.668 1.854-3.228 2.061-4.693.18-1.468-.577-2.774-2.24-3.964-.872-.62-1.7-.943-2.436-.943-.733 0-1.485.163-2.197.533a6.803 6.803 0 0 0-1.903 1.417 14.677 14.677 0 0 0-1.532 1.898 17.232 17.232 0 0 0-1.35 2.178c-.346.644-.485 1.4-.437 2.224.048.82.274 1.807.736 2.93.454 1.122 1.238 2.471 2.265 4.08 1.468 2.244 2.5 4.234 3.049 5.993.573 1.792.776 3.415.636 4.928a12.38 12.38 0 0 1-1.369 4.513c-.76 1.489-1.743 3.093-2.977 4.808zm72.553-5.382c4.74 2.13 7.65 4.924 8.705 8.382 1.102 3.459.414 7.905-2.062 13.377-1.098 2.404-2.316 4.51-3.666 6.273-1.325 1.763-2.833 3.116-4.577 4.032-1.7.915-3.622 1.377-5.723 1.377-2.113 0-4.494-.621-7.148-1.811l-3.252-1.489-8.911 19.738-7.997-3.59 23.272-51.443 11.36 5.154zm-6.782 5.93l-7.51 16.605 2.814 1.282c2.455 1.103 4.493 1.194 6.097.207 1.604-.983 3.045-2.866 4.307-5.703 1.142-2.516 1.58-4.717 1.325-6.595-.25-1.855-1.604-3.368-4.048-4.466l-2.985-1.33zm48.442 68.733l12.669-54.99 24.434 5.637-1.855 7.968-15.873-3.666-3.459 15.025 13.835 3.208-1.878 8.127-13.831-3.204-3.662 15.893 15.869 3.666-1.835 7.972-24.414-5.636zm92.163-43.833c4.605.111 8.155 1.489 10.695 4.12 2.52 2.634 3.713 6.85 3.57 12.62-.088 3.57-.685 6.571-1.735 9-1.06 2.427-2.886 4.33-5.453 5.659l7.697 25.42-8.891-.23-6.735-23.522-4.119-.112-.597 23.363-8.752-.23 1.425-56.434 12.895.346zm-4.334 8.08l-.402 16.537 3.546.072c2.269.067 3.96-.55 5.063-1.86 1.118-1.28 1.735-3.386 1.787-6.32.087-2.587-.414-4.605-1.421-6.07-1.01-1.44-2.754-2.22-5.174-2.288l-3.4-.071zm118.647 34.885c-4.49 1.282-8.112 1.075-10.882-.573-2.774-1.676-4.784-4.673-6.022-9.05l-7.701-27.07c-.546-2.017-.872-3.983-.916-5.934-.04-1.922.279-3.705.967-5.357.689-1.672 1.744-3.112 3.188-4.37 1.433-1.262 3.356-2.205 5.74-2.89 4.446-1.261 7.992-1.054 10.718.617 2.73 1.696 4.625 4.378 5.668 8.04l.167.621-7.805 3.984c-.55-1.97-1.37-3.459-2.495-4.513-1.075-1.031-2.444-1.306-4.1-.848-.96.275-1.692.688-2.193 1.281a4.406 4.406 0 0 0-.967 2.018c-.14.733-.155 1.513-.092 2.313.092.776.235 1.532.414 2.197l7.86 27.578c.156.573.383 1.098.685 1.58a5.875 5.875 0 0 0 1.855 2.265c.8.62 1.942.712 3.439.298 1.46-.434 2.563-1.166 3.248-2.197.66-1.03.8-2.225.406-3.574l-3.021-10.694-4.924 1.397-2.081-7.308 13.33-3.8 4.95 17.317c1.19 4.254.892 7.832-.899 10.69-1.811 2.89-4.645 4.86-8.537 5.982zm50.5-80.346c4.079-2.106 7.852-2.587 11.334-1.509 3.48 1.123 6.548 4.235 9.206 9.39 1.604 3.18 2.544 6.089 2.747 8.724.246 2.659-.454 5.174-2.058 7.582l18.917 18.643-7.924 4.055-17.13-17.456-3.714 1.902 10.655 20.776-7.793 3.984-25.711-50.224 11.47-5.867zm.039 9.162l7.538 14.73 3.18-1.631c2.038-1.027 3.228-2.384 3.578-4.052.343-1.672-.139-3.829-1.464-6.416-1.166-2.313-2.571-3.845-4.147-4.649-1.6-.8-3.48-.637-5.636.462l-3.049 1.556zm85.09 3.753l-34.861-44.382 6.873-5.409 34.858 44.386-6.87 5.405zm48.964-43.49l15.988-18.436-6.185-5.361-10.261 11.817-36.462-31.578-5.727 6.614 42.647 36.944zm47.407-60.876l-48.916-28.123 4.35-7.582 41.843 24.047 7.805-13.58 7.105 4.076-12.187 21.162zm-469.373-363.08h55.494v-19.718h-55.494v19.718zm55.498 47.383c0-18.48-10.79-30.046-27.733-30.046-16.59 0-27.765 11.566-27.765 30.046v215.864c0 18.508 10.794 30.07 27.765 30.07 16.557 0 27.733-11.562 27.733-30.07V406.874zm-36.207 18.14c0-21.595-.788-29.679 8.474-29.679 9.253 0 8.47 8.084 8.47 29.68V604.62c0 21.576.783 29.683-8.47 29.683-9.262 0-8.474-8.107-8.474-29.683V425.015zm139.455 30.83v-48.97c0-18.48-10.79-30.046-27.761-30.046-16.562 0-27.734 11.566-27.734 30.046v28.54c0 68.594 35.813 71.686 35.813 142.986v30.07c0 21.576-1.134 25.834-8.473 25.834-7.324 0-8.466-4.258-8.466-25.834v-46.241H485.3v60.51c0 18.507 11.586 30.069 27.754 30.069 16.199 0 27.399-11.562 27.765-30.07v-45.874c0-69.764-35.849-71.686-35.849-144.152v-11.566c0-21.576 1.174-25.81 8.478-25.81 7.327 0 8.473 4.234 8.473 25.81v34.699h19.288zm66.623 62.043h16.947v131.832h19.288V379.897H624.78v119.486h-16.947V379.897h-19.28v269.822h19.28V517.887zM727.638 398.4h20.816v-18.503h-60.9V398.4h20.82v251.32h19.264V398.4z" fill="#FFF"/></g></svg>