<svg width="96" height="106" viewBox="0 0 96 106" fill="none" xmlns="http://www.w3.org/2000/svg">
<path d="M52.9377 99.0341C64.1705 93.9497 90.6668 78.2443 90.6668 43.2136V22.0502C90.6668 16.088 90.6668 13.1024 89.5054 10.8229C88.4827 8.81585 86.8467 7.18525 84.8396 6.1626C82.5579 5 79.5751 5 73.6012 5H22.4012C16.4273 5 13.4381 5 11.1564 6.1626C9.14935 7.18525 7.51874 8.81585 6.49609 10.8229C5.3335 13.1046 5.3335 16.0938 5.3335 22.0677V43.2135C5.3335 78.2442 31.8284 93.9497 43.0612 99.0341C44.2521 99.5731 44.8504 99.8421 46.1982 100.074C47.0484 100.219 48.9573 100.219 49.8075 100.074C51.1506 99.8429 51.7427 99.5749 52.9254 99.0396L52.9377 99.0341Z" stroke="#83945D" stroke-width="10" stroke-linecap="round" stroke-linejoin="round"/>
</svg>
