<?xml version="1.0" standalone="no"?>
<!DOCTYPE svg PUBLIC "-//W3C//DTD SVG 20010904//EN"
 "http://www.w3.org/TR/2001/REC-SVG-20010904/DTD/svg10.dtd">
<svg version="1.0" xmlns="http://www.w3.org/2000/svg"
 width="512.000000pt" height="512.000000pt" viewBox="0 0 512.000000 512.000000"
 preserveAspectRatio="xMidYMid meet">

<g transform="translate(0.000000,512.000000) scale(0.100000,-0.100000)"
fill="#83945d" stroke="none">
<path d="M1545 4296 c-210 -35 -378 -128 -539 -297 -134 -139 -228 -312 -281
-514 -36 -137 -46 -383 -21 -530 21 -123 64 -254 116 -355 22 -41 40 -79 40
-83 0 -4 -184 -7 -409 -7 l-410 0 -20 -26 c-36 -46 -22 -93 33 -114 17 -6 192
-10 479 -11 l452 0 88 -103 c49 -56 137 -151 197 -211 93 -93 113 -108 141
-108 39 0 69 32 69 75 0 24 -26 55 -145 180 -80 83 -145 154 -145 159 0 5 78
9 173 10 94 1 183 4 197 8 18 5 57 53 138 171 61 91 116 166 120 168 5 1 106
-201 226 -450 125 -259 228 -463 242 -476 32 -28 56 -28 89 1 23 20 37 75 162
624 75 331 138 601 140 600 1 -2 70 -179 153 -393 83 -214 155 -399 162 -411
15 -31 58 -46 91 -34 23 9 46 48 134 225 l106 214 81 -116 c55 -79 89 -118
106 -123 14 -4 114 -7 223 -8 143 -1 197 -4 197 -13 0 -6 -308 -320 -685 -697
l-684 -686 -433 433 c-382 380 -437 432 -464 432 -39 0 -74 -36 -74 -76 0 -25
60 -89 453 -481 489 -489 479 -480 559 -454 25 8 226 204 733 714 385 386 723
730 750 764 l50 62 452 0 c287 1 462 5 479 11 55 21 69 68 33 114 l-20 26
-410 0 c-227 0 -409 4 -409 9 0 5 11 28 25 53 87 155 166 456 135 513 -19 36
-55 47 -95 31 -37 -16 -36 -13 -60 -147 -25 -143 -90 -305 -167 -416 l-29 -43
-248 0 -248 0 -83 123 c-126 184 -137 197 -171 197 -17 0 -38 -4 -47 -9 -9 -5
-60 -95 -112 -200 -54 -109 -97 -185 -101 -178 -4 6 -80 201 -168 431 -89 230
-166 427 -172 438 -26 48 -107 42 -128 -10 -6 -15 -69 -285 -141 -600 -71
-315 -133 -587 -138 -605 l-9 -32 -20 45 c-126 273 -389 800 -409 818 -29 25
-51 28 -79 8 -11 -7 -83 -106 -160 -220 l-139 -206 -223 0 -223 0 -40 62
c-116 179 -170 369 -170 598 0 287 90 529 267 721 241 260 583 337 889 199
134 -60 212 -128 407 -353 62 -72 121 -130 134 -133 46 -12 70 6 180 133 61
71 137 154 169 187 216 216 521 288 798 189 246 -88 446 -305 542 -587 13 -38
31 -78 41 -88 37 -41 123 -8 123 47 0 31 -44 155 -84 238 -100 206 -279 393
-463 486 -256 128 -556 130 -807 5 -140 -71 -229 -144 -371 -308 -55 -64 -102
-116 -105 -116 -3 0 -50 52 -105 116 -154 178 -278 274 -439 338 -139 56 -326
76 -471 52z"/>
</g>
</svg>
