<?xml version="1.0" standalone="no"?>
<!DOCTYPE svg PUBLIC "-//W3C//DTD SVG 20010904//EN"
 "http://www.w3.org/TR/2001/REC-SVG-20010904/DTD/svg10.dtd">
<svg version="1.0" xmlns="http://www.w3.org/2000/svg"
 width="512.000000pt" height="512.000000pt" viewBox="0 0 512.000000 512.000000"
 preserveAspectRatio="xMidYMid meet">

<g transform="translate(0.000000,512.000000) scale(0.100000,-0.100000)"
fill="#83945d" stroke="none">
<path d="M2174 4692 c-75 -26 -128 -73 -163 -144 -75 -149 -15 -323 134 -394
28 -13 62 -24 76 -24 15 0 41 -3 58 -6 l31 -6 0 -124 0 -123 -47 -6 c-340 -45
-642 -150 -920 -319 -207 -125 -247 -169 -206 -224 37 -50 72 -43 203 44 201
133 442 239 675 298 305 77 670 86 978 25 223 -45 472 -138 668 -250 311 -178
614 -477 796 -786 169 -288 248 -538 298 -946 8 -59 33 -87 78 -87 34 0 58 18
70 52 3 10 0 70 -8 135 -75 634 -379 1176 -880 1575 -258 205 -573 357 -895
433 -88 21 -276 55 -302 55 -5 0 -8 56 -8 125 0 69 3 125 8 125 4 0 36 5 71
10 156 26 250 133 251 286 0 132 -81 243 -203 279 -41 12 -116 15 -381 15
-290 -1 -337 -3 -382 -18z m729 -146 c18 -7 45 -28 60 -45 49 -59 31 -160 -36
-201 -30 -19 -52 -20 -367 -20 -315 0 -337 1 -367 20 -67 41 -85 142 -36 201
48 57 58 58 401 59 242 0 320 -3 345 -14z m-243 -546 l0 -120 -100 0 -100 0 0
120 0 120 100 0 100 0 0 -120z"/>
<path d="M3067 3430 c-101 -26 -123 -47 -401 -382 l-188 -228 -102 0 c-111 0
-176 -14 -225 -50 l-31 -21 -54 26 c-53 26 -55 26 -253 23 l-200 -3 -41 -29
c-26 -17 -51 -47 -67 -79 l-25 -51 0 -536 0 -536 25 -51 c16 -32 41 -62 67
-79 l41 -29 198 -3 c181 -3 203 -1 244 17 l45 20 50 -34 c27 -18 72 -38 100
-44 33 -7 212 -11 493 -11 364 0 453 3 502 15 193 49 333 188 379 376 13 53
16 123 16 370 0 398 -11 451 -115 567 -53 59 -128 105 -200 123 -28 7 -53 16
-57 19 -4 3 20 39 54 80 83 102 103 147 103 240 0 62 -5 85 -28 132 -59 120
-204 189 -330 158z m139 -179 c32 -20 64 -74 64 -110 0 -39 -27 -85 -100 -171
-76 -90 -100 -132 -100 -177 0 -62 73 -133 136 -133 97 0 201 -67 246 -158 22
-45 23 -58 26 -341 4 -311 -3 -393 -40 -464 -31 -61 -110 -132 -175 -159 -58
-23 -59 -23 -523 -23 -434 0 -468 1 -494 18 -55 37 -56 45 -56 554 0 426 2
471 18 503 27 56 68 70 202 70 95 0 120 3 146 19 17 10 130 138 250 284 120
145 232 274 249 286 38 27 108 28 151 2z m-1196 -631 c19 -19 20 -33 20 -520
0 -487 -1 -501 -20 -520 -18 -18 -33 -20 -185 -20 -152 0 -165 1 -175 19 -14
27 -14 1015 0 1042 10 18 23 19 175 19 152 0 167 -2 185 -20z"/>
<path d="M865 3167 c-279 -289 -483 -651 -579 -1029 -61 -235 -68 -308 -73
-689 l-5 -345 -43 -28 c-58 -36 -102 -88 -134 -156 -22 -47 -26 -69 -26 -145
0 -77 4 -99 28 -150 33 -71 95 -138 157 -170 69 -35 150 -47 299 -43 126 3
134 4 152 27 26 31 24 73 -4 98 -20 19 -37 21 -177 25 -133 3 -161 7 -195 25
-51 27 -69 47 -96 108 -39 88 -7 196 74 252 l40 28 2277 0 2277 0 40 -28 c81
-56 113 -164 74 -252 -27 -61 -45 -81 -96 -109 l-40 -21 -1980 -5 c-1089 -3
-1986 -9 -1993 -13 -42 -27 -33 -104 14 -126 35 -16 3900 -16 3976 0 115 25
205 96 255 204 24 51 28 73 28 150 0 76 -4 98 -26 145 -32 69 -76 120 -134
157 l-45 28 0 156 c0 150 -1 156 -23 177 -33 31 -80 29 -106 -4 -19 -24 -21
-40 -21 -160 l0 -134 -2200 0 -2200 0 0 253 c0 140 5 303 11 363 47 483 251
930 586 1287 71 74 83 92 83 121 0 25 -7 40 -26 55 -47 37 -72 28 -149 -52z"/>
</g>
</svg>
